<svg xmlns="http://www.w3.org/2000/svg" aria-hidden="true" style="position:absolute;width:0;height:0;overflow:hidden"><defs><symbol id="icon-bell" viewBox="0 0 32 32"><path d="M16 32a4.003 4.003 0 0 0 4-4h-8a4.003 4.003 0 0 0 4 4zm0-28.164-1.594.322A8.005 8.005 0 0 0 8 12c0 1.256-.268 4.394-.918 7.484-.32 1.534-.752 3.132-1.326 4.516h20.488c-.574-1.384-1.004-2.98-1.326-4.516C24.268 16.394 24 13.256 24 12a7.998 7.998 0 0 0-6.406-7.84L16 3.836zM28.44 24c.446.894.962 1.602 1.56 2H2c.598-.398 1.114-1.106 1.56-2C5.36 20.4 6 13.76 6 12c0-4.84 3.44-8.88 8.01-9.802a2 2 0 1 1 3.98 0A10.002 10.002 0 0 1 26 12c0 1.76.64 8.4 2.44 12z"/></symbol><symbol id="icon-envelope" viewBox="0 0 32 32"><path d="M0 8a4.003 4.003 0 0 1 4-4h24a4.003 4.003 0 0 1 4 4v16a4.003 4.003 0 0 1-4 4H4a4.003 4.003 0 0 1-4-4V8zm4-2a2 2 0 0 0-2 2v.434l14 8.4 14-8.4V8a2 2 0 0 0-2-2H4zm26 4.766-9.416 5.65L30 22.21V10.766zm-.068 13.752-11.28-6.942L16 19.166l-2.652-1.59-11.28 6.94A2 2 0 0 0 4 26h24a2.003 2.003 0 0 0 1.932-1.482zM2 22.21l9.416-5.794L2 10.766V22.21z"/></symbol><symbol id="icon-journal-text" viewBox="0 0 32 32"><path d="M10 21a.997.997 0 0 1 1-1h4a.997.997 0 0 1 1 1 .997.997 0 0 1-1 1h-4a.997.997 0 0 1-1-1zm0-4a.997.997 0 0 1 1-1h10a.997.997 0 0 1 1 1 .997.997 0 0 1-1 1H11a.997.997 0 0 1-1-1zm0-4a.997.997 0 0 1 1-1h10a.997.997 0 0 1 1 1 .997.997 0 0 1-1 1H11a.997.997 0 0 1-1-1zm0-4a.997.997 0 0 1 1-1h10a.997.997 0 0 1 1 1 .997.997 0 0 1-1 1H11a.997.997 0 0 1-1-1z"/><path d="M6 0h20a4.003 4.003 0 0 1 4 4v24a4.003 4.003 0 0 1-4 4H6a4.003 4.003 0 0 1-4-4v-2h2v2a2 2 0 0 0 2 2h20a2 2 0 0 0 2-2V4a2 2 0 0 0-2-2H6a2 2 0 0 0-2 2v2H2V4a4.003 4.003 0 0 1 4-4z"/><path d="M2 10V9a.997.997 0 0 1 1-1 .997.997 0 0 1 1 1v1h1a.997.997 0 0 1 1 1 .997.997 0 0 1-1 1H1a.997.997 0 0 1-1-1 .997.997 0 0 1 1-1h1zm0 6v-1a.997.997 0 0 1 1-1 .997.997 0 0 1 1 1v1h1a.997.997 0 0 1 1 1 .997.997 0 0 1-1 1H1a.997.997 0 0 1-1-1 .997.997 0 0 1 1-1h1zm0 6v-1a.997.997 0 0 1 1-1 .997.997 0 0 1 1 1v1h1a.997.997 0 0 1 1 1 .997.997 0 0 1-1 1H1a.997.997 0 0 1-1-1 .997.997 0 0 1 1-1h1z"/></symbol><symbol id="icon-briefcase" viewBox="0 0 32 32"><path d="M13 2a3.004 3.004 0 0 0-3 3v1H3a3.004 3.004 0 0 0-3 3v16a3.004 3.004 0 0 0 3 3h26a3.004 3.004 0 0 0 3-3V9a3.004 3.004 0 0 0-3-3h-7V5a3.004 3.004 0 0 0-3-3h-6zm0 2h6a.997.997 0 0 1 1 1v1h-8V5a.997.997 0 0 1 1-1zm3.772 13.828L30 14.302V25a.997.997 0 0 1-1 1H3a.997.997 0 0 1-1-1V14.3l13.228 3.528a2.994 2.994 0 0 0 1.544 0zM3 8h26a.997.997 0 0 1 1 1v3.232l-13.742 3.664a1.003 1.003 0 0 1-.516 0L2 12.232V9a.997.997 0 0 1 1-1z"/></symbol><symbol id="icon-calendar" viewBox="0 0 32 32"><path d="M7 0a.997.997 0 0 1 1 1v1h16V1a.997.997 0 0 1 1-1 .997.997 0 0 1 1 1v1h2a4.003 4.003 0 0 1 4 4v22a4.003 4.003 0 0 1-4 4H4a4.003 4.003 0 0 1-4-4V6a4.003 4.003 0 0 1 4-4h2V1a.997.997 0 0 1 1-1zM4 4a2 2 0 0 0-2 2v2h28V6a2 2 0 0 0-2-2H4zm26 6H2v18a2 2 0 0 0 2 2h24a2 2 0 0 0 2-2V10z"/><path d="M18 15a.997.997 0 0 1 1-1h11v4H19a.997.997 0 0 1-1-1v-2zm-4 6v2a.997.997 0 0 1-1 1H2v-4h11a.997.997 0 0 1 1 1z"/></symbol><symbol id="icon-clipboard-check" viewBox="0 0 32 32"><path d="M21.708 14.292a.991.991 0 0 1 .293.708 1.002 1.002 0 0 1-.293.708l-6 6a.991.991 0 0 1-.708.293 1.002 1.002 0 0 1-.708-.293l-3-3a.991.991 0 0 1-.293-.708 1.002 1.002 0 0 1 1.709-.708L15 19.586l5.292-5.294a.991.991 0 0 1 .708-.293 1.006 1.006 0 0 1 .708.293z"/><path d="M8 3H6a4.003 4.003 0 0 0-4 4v21a4.003 4.003 0 0 0 4 4h20a4.003 4.003 0 0 0 4-4V7a4.003 4.003 0 0 0-4-4h-2v2h2a2 2 0 0 1 2 2v21a2 2 0 0 1-2 2H6a2 2 0 0 1-2-2V7a2 2 0 0 1 2-2h2V3z"/><path d="M19 2a.997.997 0 0 1 1 1v2a.997.997 0 0 1-1 1h-6a.997.997 0 0 1-1-1V3a.997.997 0 0 1 1-1h6zm-6-2a3.004 3.004 0 0 0-3 3v2a3.004 3.004 0 0 0 3 3h6a3.004 3.004 0 0 0 3-3V3a3.004 3.004 0 0 0-3-3h-6z"/></symbol><symbol id="icon-coin" viewBox="0 0 32 32"><path d="M11 19.022c.152 1.908 1.66 3.394 4.364 3.57V24h1.2v-1.418c2.8-.196 4.436-1.692 4.436-3.864 0-1.974-1.252-2.992-3.49-3.52l-.946-.224V11.14c1.2.136 1.964.792 2.148 1.7h2.104c-.152-1.838-1.728-3.276-4.252-3.432V8h-1.2v1.438c-2.39.234-4.02 1.672-4.02 3.706 0 1.8 1.212 2.944 3.226 3.414l.794.196v4.068c-1.23-.186-2.044-.86-2.228-1.8H11zm4.354-4.332c-1.18-.274-1.82-.832-1.82-1.672 0-.94.69-1.644 1.83-1.85v3.52l-.01.002zm1.384 2.386c1.434.332 2.096.87 2.096 1.82 0 1.084-.824 1.828-2.27 1.964v-3.824l.174.04z"/><path d="M16 30a14 14 0 1 1 0-28 14 14 0 0 1 0 28zm0 2a16.003 16.003 0 0 0 16-16A15.997 15.997 0 0 0 16 0 15.997 15.997 0 0 0 0 16a16.003 16.003 0 0 0 16 16z"/><path d="M16 27a11 11 0 1 1 0-22 11 11 0 0 1 0 22zm0 1a12 12 0 1 0 .002-24.003A12 12 0 0 0 16 28.002z"/></symbol><symbol id="icon-columns-gap" viewBox="0 0 32 32"><path d="M12 2v6H2V2h10zM2 0a2 2 0 0 0-2 2v6a2 2 0 0 0 2 2h10a2 2 0 0 0 2-2V2a2 2 0 0 0-2-2H2zm28 24v6H20v-6h10zm-10-2a2 2 0 0 0-2 2v6a2 2 0 0 0 2 2h10a2 2 0 0 0 2-2v-6a2 2 0 0 0-2-2H20zm-8-6v14H2V16h10zM2 14a2 2 0 0 0-2 2v14a2 2 0 0 0 2 2h10a2 2 0 0 0 2-2V16a2 2 0 0 0-2-2H2zM30 2v14H20V2h10zM20 0a2 2 0 0 0-2 2v14a2 2 0 0 0 2 2h10a2 2 0 0 0 2-2V2a2 2 0 0 0-2-2H20z"/></symbol><symbol id="icon-person-plus" viewBox="0 0 32 32"><path d="M12 16a5.996 5.996 0 0 0 6-6A6.002 6.002 0 0 0 7.757 5.757 6 6 0 0 0 12 16zm4-6a4.003 4.003 0 0 1-4 4 4.003 4.003 0 0 1-4-4 4.003 4.003 0 0 1 4-4 4.003 4.003 0 0 1 4 4zm8 16c0 2-2 2-2 2H2s-2 0-2-2 2-8 12-8 12 6 12 8zm-2-.008c-.002-.492-.308-1.972-1.664-3.328C19.032 21.36 16.578 20 12 20c-4.58 0-7.032 1.36-8.336 2.664C2.308 24.02 2.004 25.5 2 25.992h20zM27 10a.997.997 0 0 1 1 1v3h3a.997.997 0 0 1 1 1 .997.997 0 0 1-1 1h-3v3a.997.997 0 0 1-1 1 .997.997 0 0 1-1-1v-3h-3a.997.997 0 0 1-1-1 .997.997 0 0 1 1-1h3v-3a.997.997 0 0 1 1-1z"/></symbol><symbol id="icon-search" viewBox="0 0 32 32"><path d="M23.484 20.688a13 13 0 1 0-2.794 2.796h-.002c.06.08.124.156.196.23l7.7 7.7a2 2 0 0 0 2.83-2.828l-7.7-7.7a2.069 2.069 0 0 0-.23-.198zM24 13a10.998 10.998 0 0 1-18.778 7.779A10.988 10.988 0 0 1 2 13a11 11 0 0 1 22 0z"/></symbol><symbol id="icon-arrow-clockwise" viewBox="0 0 32 32"><path d="M16 6.001a10.006 10.006 0 0 0-9.594 7.19 10.005 10.005 0 0 0 4.201 11.229 10.005 10.005 0 0 0 11.957-.871 10.003 10.003 0 0 0 2.528-11.719c-.098-.239-.1-.506-.006-.747s.279-.435.513-.542a.999.999 0 0 1 1.309.455 12 12 0 1 1-10.907-6.994v2z"/><path d="M16 8.933V1.069a.498.498 0 0 1 .82-.383l4.72 3.932a.5.5 0 0 1 0 .768l-4.72 3.932a.498.498 0 0 1-.82-.383z"/></symbol><symbol id="icon-geo-alt-fill" viewBox="0 0 32 32"><path d="M16 32s12-11.372 12-20A12.003 12.003 0 0 0 16 0 12.003 12.003 0 0 0 4 12c0 8.628 12 20 12 20zm0-14a5.996 5.996 0 0 1-6-6 6.002 6.002 0 0 1 10.243-4.243A6 6 0 0 1 16 18z"/></symbol><symbol id="icon-close" viewBox="0 0 32 32"><path d="M4.292 5.708A.991.991 0 0 1 3.999 5a1.006 1.006 0 0 1 .618-.925 1.01 1.01 0 0 1 .766 0c.121.05.232.124.325.217L16 14.586 26.292 4.292A.991.991 0 0 1 27 3.999a1.006 1.006 0 0 1 .925.618 1.006 1.006 0 0 1-.217 1.091L17.414 16l10.294 10.292a.991.991 0 0 1 .293.708 1.006 1.006 0 0 1-.618.925 1.01 1.01 0 0 1-.766 0 1.002 1.002 0 0 1-.325-.217L16 17.414 5.708 27.708a.991.991 0 0 1-.708.293 1.006 1.006 0 0 1-.925-.618 1.006 1.006 0 0 1 .217-1.091L14.586 16 4.292 5.708z"/></symbol><symbol id="icon-justify" viewBox="0 0 32 32"><path d="M4 25a.997.997 0 0 1 1-1h22a.997.997 0 0 1 1 1 .997.997 0 0 1-1 1H5a.997.997 0 0 1-1-1zm0-6a.997.997 0 0 1 1-1h22a.997.997 0 0 1 1 1 .997.997 0 0 1-1 1H5a.997.997 0 0 1-1-1zm0-6a.997.997 0 0 1 1-1h22a.997.997 0 0 1 1 1 .997.997 0 0 1-1 1H5a.997.997 0 0 1-1-1zm0-6a.997.997 0 0 1 1-1h22a.997.997 0 0 1 1 1 .997.997 0 0 1-1 1H5a.997.997 0 0 1-1-1z"/></symbol><symbol id="icon-dash" viewBox="0 0 32 32"><path d="M8 16a.997.997 0 0 1 1-1h14a.997.997 0 0 1 1 1 .997.997 0 0 1-1 1H9a.997.997 0 0 1-1-1z"/></symbol><symbol id="icon-status" viewBox="0 0 32 32"><path stroke-width="1.6" d="M6.4.8h19.2a5.6 5.6 0 0 1 5.6 5.6v19.2a5.6 5.6 0 0 1-5.6 5.6H6.4a5.6 5.6 0 0 1-5.6-5.6V6.4A5.6 5.6 0 0 1 6.4.8z"/><path d="M16 9.6a.8.8 0 0 1 .8.8v4.8h4.8a.8.8 0 1 1 0 1.6h-4.8v4.8a.8.8 0 1 1-1.6 0v-4.8h-4.8a.8.8 0 1 1 0-1.6h4.8v-4.8a.8.8 0 0 1 .8-.8z"/></symbol><symbol id="icon-gear" viewBox="0 0 32 32"><path d="M16 9.508a6.49 6.49 0 1 0 0 12.983 6.49 6.49 0 0 0 0-12.984zM11.508 16A4.489 4.489 0 0 1 16 11.508 4.489 4.489 0 0 1 20.492 16 4.489 4.489 0 0 1 16 20.492 4.489 4.489 0 0 1 11.508 16z"/><path d="M19.592 2.686c-1.054-3.58-6.13-3.58-7.184 0l-.188.638a1.754 1.754 0 0 1-1.006 1.12 1.756 1.756 0 0 1-1.504-.079l-.584-.32c-3.28-1.784-6.866 1.804-5.08 5.082l.318.584a1.746 1.746 0 0 1-1.041 2.51l-.638.188c-3.58 1.054-3.58 6.13 0 7.184l.638.188a1.754 1.754 0 0 1 1.12 1.006 1.754 1.754 0 0 1-.079 1.504l-.32.584c-1.784 3.28 1.802 6.868 5.082 5.08l.584-.318a1.746 1.746 0 0 1 2.51 1.041l.188.638c1.054 3.58 6.13 3.58 7.184 0l.188-.638a1.754 1.754 0 0 1 1.006-1.12 1.756 1.756 0 0 1 1.504.079l.584.32c3.28 1.786 6.868-1.804 5.08-5.082l-.318-.584a1.746 1.746 0 0 1 1.04-2.51l.638-.188c3.58-1.054 3.58-6.13 0-7.184l-.638-.188a1.754 1.754 0 0 1-1.12-1.006 1.74 1.74 0 0 1 .08-1.504l.32-.584c1.786-3.28-1.804-6.866-5.082-5.08l-.584.318a1.746 1.746 0 0 1-2.51-1.041l-.188-.638zm-5.266.566c.492-1.67 2.856-1.67 3.348 0l.188.638a3.748 3.748 0 0 0 5.385 2.23l.582-.32c1.528-.83 3.2.84 2.368 2.37l-.318.584a3.756 3.756 0 0 0-.171 3.225 3.738 3.738 0 0 0 2.402 2.159l.636.188c1.67.492 1.67 2.856 0 3.348l-.638.188a3.748 3.748 0 0 0-2.23 5.385l.32.582c.83 1.528-.84 3.2-2.37 2.368l-.582-.318a3.76 3.76 0 0 0-3.227-.171 3.742 3.742 0 0 0-2.159 2.403l-.188.636c-.492 1.67-2.856 1.67-3.348 0l-.188-.638a3.737 3.737 0 0 0-2.16-2.401 3.752 3.752 0 0 0-3.225.171l-.584.32c-1.528.83-3.2-.84-2.368-2.37l.318-.582c.268-.491.423-1.036.452-1.594s-.066-1.116-.279-1.633a3.745 3.745 0 0 0-2.404-2.161l-.638-.188c-1.67-.492-1.67-2.856 0-3.348l.638-.188a3.742 3.742 0 0 0 2.229-5.382l-.32-.584c-.83-1.528.84-3.2 2.37-2.368l.584.318a3.756 3.756 0 0 0 3.225.171 3.748 3.748 0 0 0 2.16-2.401l.188-.638z"/></symbol><symbol id="icon-plus" viewBox="0 0 32 32"><path d="M16 8a.997.997 0 0 1 1 1v6h6a.997.997 0 0 1 1 1 .997.997 0 0 1-1 1h-6v6a.997.997 0 0 1-1 1 .997.997 0 0 1-1-1v-6H9a.997.997 0 0 1-1-1 .997.997 0 0 1 1-1h6V9a.997.997 0 0 1 1-1z"/></symbol><symbol id="icon-checkmark" viewBox="0 0 32 32"><path d="M12.42 28.678-.013 16.44l6.168-6.071 6.265 6.167L25.846 3.322l6.168 6.071L12.42 28.678zM3.372 16.441l9.048 8.905L28.628 9.393l-2.782-2.739L12.42 19.868l-6.265-6.167-2.782 2.739z"/></symbol><symbol id="icon-down" viewBox="0 0 32 32"><path d="M3.292 9.292A.991.991 0 0 1 4 8.999a1.002 1.002 0 0 1 .708.293L16 20.586 27.292 9.292A.991.991 0 0 1 28 8.999a1.006 1.006 0 0 1 .925.618 1.006 1.006 0 0 1-.217 1.091l-12 12a.991.991 0 0 1-.708.293 1.002 1.002 0 0 1-.708-.293l-12-12A.991.991 0 0 1 2.999 10a1.002 1.002 0 0 1 .293-.708z"/></symbol><symbol id="icon-up" viewBox="0 0 32 32"><path d="M15.292 9.292A.991.991 0 0 1 16 8.999a1.002 1.002 0 0 1 .708.293l12 12A1 1 0 0 1 28 23.001a1 1 0 0 1-.708-.293L16 11.414 4.708 22.708A1 1 0 0 1 2.999 22c0-.266.106-.52.293-.708l12-12z"/></symbol><symbol id="icon-cat-logo" viewBox="0 0 24 24"><path fill="#1C1C24" d="M1.916 8.02s-.355-6.61 1.081-6.94C4.433.75 6.911 3.121 6.911 3.121l-4.995 4.9Zm13.565-4.738s2.652-2.64 4.53-2.2c1.879.44.444 5.658.444 5.658L15.48 3.282Z"/><path fill="#F07F2E" stroke="#1C1C24" stroke-miterlimit="10" stroke-width="0.4" d="M20.668 20.107c-1.99 1.572-3.32 2.086-5.583 2.698-1.51.409-5.312.388-8.856-1.038-2.482-1.086-3.455-2.267-3.923-2.91-.408-.56-1.238-1.802-1.285-3.16-.07-1.978-.011-3.908.897-7.674.907-3.768 4.994-4.9 4.994-4.9 4.465-1.053 8.172-.225 9.459 0 1.286.227 4.942 2.541 5.256 7.18.048.693.825 3.16.9 5.232.022.635.04 1.481-.276 2.35-.365 1-1.18 1.884-1.583 2.221Z"/><path fill="#1C1C24" d="M8.361 10.748a1.74 1.74 0 0 1 .107-.173l.056-.08.033-.043a2.34 2.34 0 0 1 .263-.272c.011-.01.07-.059.024-.022-.047.036.021-.014.036-.025.038-.025.077-.05.118-.07l.062-.031c.041-.021-.073.023.007-.001.045-.014.089-.025.133-.035.06-.015-.076.002-.014.002.027 0 .054-.003.082-.002.025 0 .05.004.073.004.044 0-.072-.02-.03-.003.01.004.023.003.033.007l.076.02.033.013c.069.02-.04-.026-.006-.003.057.039.124.068.182.106a.652.652 0 0 1 .035.026c-.056-.043 0 0 .01.011.032.03.065.057.095.088.157.155.253.292.372.484.1.16.313.222.48.125a.353.353 0 0 0 .125-.477c-.375-.601-.944-1.21-1.722-1.074-.467.082-.833.45-1.1.816-.062.083-.12.169-.168.258a.355.355 0 0 0 .126.477c.158.09.39.04.48-.127Zm10.24-.5c.03-.057.065-.111.102-.165l.053-.077.03-.042c.026-.034-.058.072-.005.01a2.347 2.347 0 0 1 .257-.266c.012-.01.07-.057.022-.02-.048.038.018-.012.033-.021a1.16 1.16 0 0 1 .112-.069l.059-.03c.04-.02-.078.025.003 0 .042-.012.085-.022.129-.033.058-.014-.079.004-.018.002.026 0 .052-.003.078-.002.024 0 .047.005.07.005.045 0-.073-.02-.032-.004.01.004.02.004.03.006l.073.02c.01.003.02.008.031.01.068.02-.042-.026-.01-.004.056.037.119.064.175.102a.833.833 0 0 1 .033.025c-.06-.046-.005-.003.007.008.03.028.062.054.09.083.154.153.236.272.355.461.1.16.313.223.479.126a.353.353 0 0 0 .126-.477c-.363-.582-.914-1.167-1.666-1.036-.452.08-.804.434-1.064.788-.058.08-.113.162-.16.248a.355.355 0 0 0 .127.477c.16.093.392.043.481-.125Z"/><path stroke="#1C1C24" stroke-miterlimit="10" stroke-width="0.4" d="m10.623 13.772-3.626-.117m3.685 1.361-3.148.466m12.64-2.247 3.626-.117m-3.685 1.357 3.148.464m-8.276-.304s1.754 2.418 3.238-.044m-1.605-1.762v2.73"/><path fill="#1C1C24" d="M16.588 12.952c.735 0 1.33-.418 1.33-.934 0-.515-.595-.933-1.33-.933-.734 0-1.33.418-1.33.933 0 .516.596.934 1.33.934Z"/><path fill="#1C1C24" stroke="#1C1C24" stroke-miterlimit="10" stroke-width="0.4" d="M4.94 11.631c1.18-1.216-2.59-3.768-2.867-3.877C2.06 7.749 1 12.524 1.055 15.4c.013.671.14 1.37.14 1.37.221.196.366.826 2.018.022.924-.45 1.107-1.368.265-1.544-1.618-.339.005-.7-.26-1.34-.67-1.615.482-.998 1.722-2.277Zm16.011 4.743c.137-1.43 1.48-1.026 1.48-1.026.446 2.61-1.116 4.383-2.243 5.004-.273 0-.535-1.596.08-1.8.614-.203.546-.748.683-2.178Z"/></symbol></defs></svg>